<?xml version="1.0" encoding="UTF-8"?>
<svg version="1.1" xmlns="http://www.w3.org/2000/svg" width="460" height="460">
<path d="M0 0 C151.8 0 303.6 0 460 0 C460 151.8 460 303.6 460 460 C308.2 460 156.4 460 0 460 C0 308.2 0 156.4 0 0 Z " fill="#25AC4D" transform="translate(0,0)"/>
<path d="M0 0 C1.33351501 0.00131424 1.33351501 0.00131424 2.69396973 0.00265503 C15.65543027 0.04484766 27.98211794 0.46462137 40.4375 4.375 C41.27071777 4.62701172 42.10393555 4.87902344 42.96240234 5.13867188 C53.78173752 8.47261813 63.70100271 12.56560175 73.4375 18.375 C74.29214844 18.85582031 75.14679688 19.33664063 76.02734375 19.83203125 C104.39486509 36.09966197 124.69489677 61.10159938 138.4375 90.375 C138.953125 91.35210937 139.46875 92.32921875 140 93.3359375 C154.9066498 124.85053951 153.83726403 165.92591374 142.8125 198.25 C137.80192137 212.15506879 131.24367992 225.4647819 122.12890625 237.1484375 C120.36953727 239.46446594 118.9276446 241.88026354 117.4375 244.375 C116.12695377 245.73073748 114.79001497 247.06112831 113.4375 248.375 C112.51472471 249.47406668 111.59866671 250.57879037 110.6875 251.6875 C107.28041369 255.68933953 103.46447444 259.01219669 99.4375 262.375 C98.6125 263.08785156 97.7875 263.80070312 96.9375 264.53515625 C90.17797989 270.26306355 83.04393376 274.85867995 75.4375 279.375 C74.0391449 280.28781514 72.64290301 281.20388672 71.25 282.125 C66.90178159 284.85293492 62.23630165 286.59967596 57.4375 288.375 C56.220625 288.849375 55.00375 289.32375 53.75 289.8125 C52.31319072 290.33523578 50.87557666 290.85576101 49.4375 291.375 C48.40496094 291.76816406 47.37242187 292.16132813 46.30859375 292.56640625 C12.85433123 304.65613435 -27.57697037 302.35250678 -59.8046875 287.45703125 C-63.78781213 285.54522471 -67.68516433 283.49182709 -71.5625 281.375 C-72.63242188 280.7975 -73.70234375 280.22 -74.8046875 279.625 C-85.9632374 273.36461876 -96.62358241 265.54312061 -105.5625 256.375 C-106.325625 255.653125 -107.08875 254.93125 -107.875 254.1875 C-109.5625 252.375 -109.5625 252.375 -109.5625 250.375 C-110.5525 250.045 -111.5425 249.715 -112.5625 249.375 C-114.16796875 247.59765625 -114.16796875 247.59765625 -115.75 245.4375 C-116.27980469 244.72722656 -116.80960938 244.01695312 -117.35546875 243.28515625 C-118.5625 241.375 -118.5625 241.375 -118.5625 239.375 C-119.2225 239.375 -119.8825 239.375 -120.5625 239.375 C-123.16211925 235.89054993 -125.31699616 232.09482455 -127.5625 228.375 C-128.16964844 227.37984375 -128.77679688 226.3846875 -129.40234375 225.359375 C-149.48344907 191.78833679 -155.31996592 150.45056475 -145.81396484 112.37695312 C-144.04924711 106.25264858 -141.88243055 100.30760566 -139.5625 94.375 C-139.13839844 93.22902344 -138.71429688 92.08304687 -138.27734375 90.90234375 C-134.02972119 79.97371487 -127.91434235 70.05463245 -121.1875 60.5 C-120.75864502 59.88656738 -120.32979004 59.27313477 -119.88793945 58.64111328 C-118.83277405 57.17907879 -117.7037849 55.77084658 -116.5625 54.375 C-115.9025 54.375 -115.2425 54.375 -114.5625 54.375 C-114.29550293 53.78420654 -114.02850586 53.19341309 -113.75341797 52.5847168 C-111.7441044 48.85648861 -108.67525637 46.15014918 -105.6875 43.1875 C-105.01493164 42.51912109 -104.34236328 41.85074219 -103.64941406 41.16210938 C-97.98892074 35.62752385 -92.12449594 30.82550765 -85.5625 26.375 C-84.68464844 25.77558594 -83.80679688 25.17617187 -82.90234375 24.55859375 C-80.16193721 22.75452641 -77.38375466 21.0497687 -74.5625 19.375 C-73.47839844 18.72660156 -72.39429688 18.07820313 -71.27734375 17.41015625 C-61.63894005 11.86073185 -51.53685635 8.38326084 -40.93334961 5.11767578 C-39.15400134 4.56028958 -37.38616282 3.96594126 -35.625 3.35351562 C-24.13660634 -0.31720199 -11.9310778 -0.02866849 0 0 Z " fill="#24AA4D" transform="translate(229.5625,45.625)"/>
<path d="M0 0 C1.33351501 0.00131424 1.33351501 0.00131424 2.69396973 0.00265503 C15.65543027 0.04484766 27.98211794 0.46462137 40.4375 4.375 C41.27071777 4.62701172 42.10393555 4.87902344 42.96240234 5.13867188 C53.78173752 8.47261813 63.70100271 12.56560175 73.4375 18.375 C74.29214844 18.85582031 75.14679688 19.33664063 76.02734375 19.83203125 C104.39486509 36.09966197 124.69489677 61.10159938 138.4375 90.375 C138.953125 91.35210937 139.46875 92.32921875 140 93.3359375 C154.9066498 124.85053951 153.83726403 165.92591374 142.8125 198.25 C137.80192137 212.15506879 131.24367992 225.4647819 122.12890625 237.1484375 C120.36953727 239.46446594 118.9276446 241.88026354 117.4375 244.375 C116.12695377 245.73073748 114.79001497 247.06112831 113.4375 248.375 C112.51472471 249.47406668 111.59866671 250.57879037 110.6875 251.6875 C107.28041369 255.68933953 103.46447444 259.01219669 99.4375 262.375 C98.6125 263.08785156 97.7875 263.80070312 96.9375 264.53515625 C90.17797989 270.26306355 83.04393376 274.85867995 75.4375 279.375 C74.0391449 280.28781514 72.64290301 281.20388672 71.25 282.125 C66.90178159 284.85293492 62.23630165 286.59967596 57.4375 288.375 C56.220625 288.849375 55.00375 289.32375 53.75 289.8125 C52.31319072 290.33523578 50.87557666 290.85576101 49.4375 291.375 C48.40496094 291.76816406 47.37242187 292.16132813 46.30859375 292.56640625 C12.85433123 304.65613435 -27.57697037 302.35250678 -59.8046875 287.45703125 C-63.78781213 285.54522471 -67.68516433 283.49182709 -71.5625 281.375 C-72.63242188 280.7975 -73.70234375 280.22 -74.8046875 279.625 C-85.9632374 273.36461876 -96.62358241 265.54312061 -105.5625 256.375 C-106.325625 255.653125 -107.08875 254.93125 -107.875 254.1875 C-109.5625 252.375 -109.5625 252.375 -109.5625 250.375 C-110.5525 250.045 -111.5425 249.715 -112.5625 249.375 C-114.16796875 247.59765625 -114.16796875 247.59765625 -115.75 245.4375 C-116.27980469 244.72722656 -116.80960938 244.01695312 -117.35546875 243.28515625 C-118.5625 241.375 -118.5625 241.375 -118.5625 239.375 C-119.2225 239.375 -119.8825 239.375 -120.5625 239.375 C-123.16211925 235.89054993 -125.31699616 232.09482455 -127.5625 228.375 C-128.16964844 227.37984375 -128.77679688 226.3846875 -129.40234375 225.359375 C-149.48344907 191.78833679 -155.31996592 150.45056475 -145.81396484 112.37695312 C-144.04924711 106.25264858 -141.88243055 100.30760566 -139.5625 94.375 C-139.13839844 93.22902344 -138.71429688 92.08304687 -138.27734375 90.90234375 C-134.02972119 79.97371487 -127.91434235 70.05463245 -121.1875 60.5 C-120.75864502 59.88656738 -120.32979004 59.27313477 -119.88793945 58.64111328 C-118.83277405 57.17907879 -117.7037849 55.77084658 -116.5625 54.375 C-115.9025 54.375 -115.2425 54.375 -114.5625 54.375 C-114.29550293 53.78420654 -114.02850586 53.19341309 -113.75341797 52.5847168 C-111.7441044 48.85648861 -108.67525637 46.15014918 -105.6875 43.1875 C-105.01493164 42.51912109 -104.34236328 41.85074219 -103.64941406 41.16210938 C-97.98892074 35.62752385 -92.12449594 30.82550765 -85.5625 26.375 C-84.68464844 25.77558594 -83.80679688 25.17617187 -82.90234375 24.55859375 C-80.16193721 22.75452641 -77.38375466 21.0497687 -74.5625 19.375 C-73.47839844 18.72660156 -72.39429688 18.07820313 -71.27734375 17.41015625 C-61.63894005 11.86073185 -51.53685635 8.38326084 -40.93334961 5.11767578 C-39.15400134 4.56028958 -37.38616282 3.96594126 -35.625 3.35351562 C-24.13660634 -0.31720199 -11.9310778 -0.02866849 0 0 Z M-101.5625 45.375 C-102.47644531 46.24769531 -103.39039063 47.12039062 -104.33203125 48.01953125 C-109.26119255 52.8304518 -113.67750924 57.6866611 -117.5625 63.375 C-118.06394531 64.10589844 -118.56539062 64.83679688 -119.08203125 65.58984375 C-120.59921254 67.83680844 -122.08295583 70.10313163 -123.5625 72.375 C-123.97242187 72.97570312 -124.38234375 73.57640625 -124.8046875 74.1953125 C-144.09577602 103.32107359 -149.7433134 142.36341442 -143.5625 176.375 C-139.35085784 196.66190371 -132.02606326 215.96575611 -119.75585938 232.7421875 C-118.59248858 234.33396816 -117.45982404 235.94804822 -116.328125 237.5625 C-113.01572017 242.2446963 -109.69871313 246.3852015 -105.5625 250.375 C-105.09271729 250.8282666 -104.62293457 251.2815332 -104.13891602 251.74853516 C-79.73999931 275.10962637 -52.04655165 289.54329527 -18.5625 294.375 C-17.64597656 294.50777344 -16.72945312 294.64054687 -15.78515625 294.77734375 C-13.03856149 295.09409164 -10.32557524 295.2588757 -7.5625 295.375 C-6.85206543 295.40754883 -6.14163086 295.44009766 -5.40966797 295.47363281 C27.10614604 296.77610726 60.55816698 287.53412394 86.4375 267.375 C87.27410156 266.73949219 88.11070312 266.10398437 88.97265625 265.44921875 C94.54444866 261.12120504 99.5460806 256.44870832 104.4375 251.375 C105.25347656 250.56933594 106.06945312 249.76367188 106.91015625 248.93359375 C130.36020047 225.19359535 145.99794282 190.12648486 145.99316406 156.6015625 C145.97681501 155.15101513 145.958219 153.70049153 145.9375 152.25 C145.93262573 151.4971875 145.92775146 150.744375 145.92272949 149.96875 C145.8028491 134.08753179 144.73588146 117.65444121 138.46484375 102.8515625 C137.5547848 100.65773217 136.84832959 98.50355422 136.14453125 96.23828125 C134.36750317 90.84553709 131.85125148 85.93971136 129.1875 80.9375 C128.70095947 80.01751221 128.21441895 79.09752441 127.71313477 78.1496582 C122.80831274 68.77089344 122.80831274 68.77089344 116.4375 60.375 C115.7775 60.375 115.1175 60.375 114.4375 60.375 C113.7775 58.725 113.1175 57.075 112.4375 55.375 C111.7775 55.375 111.1175 55.375 110.4375 55.375 C110.16454102 54.77896973 109.89158203 54.18293945 109.61035156 53.56884766 C98.12670876 32.08841173 65.73005954 17.11980777 43.8125 10.1875 C41.69182457 9.56832469 39.56679722 8.96384269 37.4375 8.375 C36.39335937 8.08625 35.34921875 7.7975 34.2734375 7.5 C-14.70253972 -5.39494084 -65.69191243 10.95617314 -101.5625 45.375 Z " fill="#030A05" transform="translate(229.5625,45.625)"/>
<path d="M0 0 C7.3906392 -0.88479483 13.86792526 2.85619223 19.62304688 7.23486328 C27.06455059 13.38425135 35.04350998 20.53923195 38 30 C39.65958381 27.84254104 41.19092763 25.69157844 42.625 23.375 C47.36772282 16.23365874 53.46993607 9.19945873 61 5 C65.18181818 5.18181818 65.18181818 5.18181818 67 7 C67.3125 9.359375 67.3125 9.359375 67 12 C65.3125 13.703125 65.3125 13.703125 63 15.25 C52.0486585 23.25687704 46.3113457 32.76326 43.42980957 46.03912354 C42.45693453 52.74107486 42.69269524 59.57659045 42.69921875 66.3359375 C42.69532405 68.02308252 42.6909878 69.71022657 42.68623352 71.39736938 C42.6788013 74.92249743 42.67904066 78.44752527 42.68432617 81.97265625 C42.69011587 86.46333272 42.6731873 90.95359607 42.6499815 95.44420433 C42.63516414 98.92575429 42.63438329 102.40720659 42.63749123 105.8887825 C42.636982 107.54318688 42.63182013 109.1975973 42.62167931 110.85197067 C42.53446144 127.0686512 45.17233357 142.21963387 56.60546875 154.59765625 C58.06751408 156.06789231 59.53385359 157.53385359 61 159 C46.15 159 31.3 159 16 159 C17.65 157.35 19.3 155.7 21 154 C32.94030904 140.56715233 34.63458782 123.75657425 34.53125 106.55859375 C34.53395637 104.93587513 34.53784818 103.31315812 34.54284668 101.69044495 C34.54868646 98.31796567 34.54035905 94.94591507 34.52148438 91.57348633 C34.49867929 87.29508864 34.51186272 83.01769437 34.53577423 78.73933315 C34.55036782 75.39741224 34.54556525 72.05572141 34.53526306 68.7137928 C34.53263396 67.13806088 34.5357275 65.56230663 34.54518127 63.98660088 C34.62500152 46.95642137 31.6612054 32.14960089 19.6875 19.1875 C14.57815995 14.39964651 8.45991813 10.86610836 1.9375 8.375 C-1 7 -1 7 -2.0625 5 C-2 3 -2 3 0 0 Z " fill="#000100" transform="translate(191,144)"/>
<path d="M0 0 C4.52061442 -0.11668418 9.04083847 -0.18741645 13.5625 -0.25 C14.83931641 -0.28351563 16.11613281 -0.31703125 17.43164062 -0.3515625 C24.47137022 -0.42470255 29.39014552 -0.47500587 35 4 C37.47281478 7.70922216 37.54814927 10.69913651 37 15 C35.31222208 18.71311143 32.97048274 21.23437814 30 24 C30.598125 24.0825 31.19625 24.165 31.8125 24.25 C34.69125235 25.23700081 35.41506025 26.42946747 37 29 C37.66383347 32.40214656 37.60167963 35.5886421 37 39 C34.47323961 42.34625024 32.96066458 43.67977847 29 45 C26.78910055 45.08358958 24.57573922 45.10731764 22.36328125 45.09765625 C21.06455078 45.09443359 19.76582031 45.09121094 18.42773438 45.08789062 C17.05598892 45.07953531 15.68424413 45.07107037 14.3125 45.0625 C12.92903805 45.05748335 11.54557437 45.05292073 10.16210938 45.04882812 C6.77469605 45.03702529 3.38736967 45.02056019 0 45 C0 43.02 0 41.04 0 39 C1.98 39 3.96 39 6 39 C6 28.44 6 17.88 6 7 C4.02 7 2.04 7 0 7 C0 4.69 0 2.38 0 0 Z " fill="#000100" transform="translate(84,362)"/>
<path d="M0 0 C8.80668642 5.55029781 15.0783519 16.18675353 17.53710938 26.18383789 C18.42292989 31.57304653 18.1859214 37.06211314 18.18530273 42.51196289 C18.18750365 44.6911125 18.20572925 46.86976696 18.22460938 49.04882812 C18.22754101 50.43228994 18.22952734 51.81575415 18.23046875 53.19921875 C18.23457764 54.45565186 18.23868652 55.71208496 18.24291992 57.0065918 C18 60 18 60 16 62 C12.9375 62.1875 12.9375 62.1875 10 62 C8.09321563 60.09321563 8.81663846 56.60012754 8.7890625 54 C8.76095574 52.5403541 8.73229111 51.08071886 8.703125 49.62109375 C8.66214432 47.32178483 8.62526249 45.0226667 8.59863281 42.72314453 C8.436309 29.82399876 7.72003541 20.78262024 -1.6328125 11.17578125 C-8.01775848 5.30710978 -13.56317267 4.45292759 -22.13696289 4.59887695 C-30.62495623 4.96021641 -36.01136778 7.07544463 -42.171875 12.95703125 C-49.47072522 21.11365233 -49.65673121 29.62737728 -49.859375 40.09765625 C-50 44 -50 44 -51 45 C-53.9375 45.1875 -53.9375 45.1875 -57 45 C-59.90084321 42.09915679 -59.42822014 39.0791376 -59.4375 35.1875 C-59.38277169 22.83193148 -55.73006528 13.3380488 -46.9140625 4.45703125 C-32.85894339 -7.39373272 -16.15352081 -8.71045772 0 0 Z " fill="#020603" transform="translate(301,164)"/>
<path d="M0 0 C3.125 2 3.125 2 5 4 C5.33 3.01 5.66 2.02 6 1 C8.64 1 11.28 1 14 1 C14.07428762 6.46261638 14.12866714 11.92493716 14.16479492 17.38793945 C14.17985946 19.24541345 14.20031509 21.10285201 14.22631836 22.96020508 C14.26280459 25.63371539 14.2797497 28.30675444 14.29296875 30.98046875 C14.30845261 31.80773972 14.32393646 32.63501068 14.33988953 33.48735046 C14.34124372 38.15144877 14.0424085 41.21513472 11 45 C8.39048764 46.30475618 6.47298715 46.11301572 3.5546875 46.09765625 C1.94013672 46.09282227 1.94013672 46.09282227 0.29296875 46.08789062 C-0.83496094 46.07951172 -1.96289062 46.07113281 -3.125 46.0625 C-4.26066406 46.05798828 -5.39632812 46.05347656 -6.56640625 46.04882812 C-9.37765638 46.03701615 -12.1888023 46.02054507 -15 46 C-15 43.69 -15 41.38 -15 39 C-8.07 39 -1.14 39 6 39 C5.505 34.05 5.505 34.05 5 29 C4.401875 29.495 3.80375 29.99 3.1875 30.5 C-1.51848459 32.71458098 -5.88309175 32.54796453 -11 32 C-15.14755434 30.49982077 -17.23658822 28.01905994 -19.26953125 24.0859375 C-21.24434644 18.44662569 -20.73245367 12.90788532 -18.1875 7.5625 C-14.05488469 -0.02187828 -8.22707297 -1.00873347 0 0 Z " fill="#020904" transform="translate(209,375)"/>
<path d="M0 0 C2.64 0 5.28 0 8 0 C8 15.18 8 30.36 8 46 C5.36 46 2.72 46 0 46 C-0.33 45.01 -0.66 44.02 -1 43 C-2.03125 43.66 -3.0625 44.32 -4.125 45 C-7.6027559 46.9662966 -9.95422604 47.60256208 -14 47 C-19.251335 45.07093816 -21.82489937 42.44514088 -25 38 C-26.6885366 32.78382005 -27.13652854 26.8059522 -25.05859375 21.67578125 C-22.71820531 17.70665854 -20.44085698 14.61485708 -16 13 C-9.70876821 12.18295691 -6.93188609 13.03405695 -1 16 C-0.67 10.72 -0.34 5.44 0 0 Z " fill="#020804" transform="translate(293,362)"/>
<path d="M0 0 C11.57156011 0.59852897 20.96521715 4.52299068 29.0234375 13.05859375 C34.89274978 20.86048447 37.74926112 28.68498245 37.7578125 38.32421875 C37.75876923 39.00426468 37.75972595 39.68431061 37.76071167 40.38496399 C37.76139007 41.8162953 37.75955955 43.24762974 37.75537109 44.67895508 C37.74999306 46.87783628 37.75534022 49.07651554 37.76171875 51.27539062 C37.7610584 52.66666712 37.75977812 54.05794349 37.7578125 55.44921875 C37.75668457 56.71725342 37.75555664 57.98528809 37.75439453 59.29174805 C37.625 62.1875 37.625 62.1875 36.625 63.1875 C33.625 63.3125 33.625 63.3125 30.625 63.1875 C28.84351552 61.40601552 29.47379599 58.76083883 29.44921875 56.3515625 C29.41344727 54.53591797 29.41344727 54.53591797 29.37695312 52.68359375 C29.33463743 50.14208723 29.30304013 47.60037511 29.28320312 45.05859375 C29.03687409 34.18574476 27.24849061 24.92729184 19.5625 16.84375 C11.41041571 9.87503278 1.9017015 9.4151383 -8.375 10.1875 C-11.47417545 11.05943927 -13.81391781 12.25700824 -16.375 14.1875 C-17.83099609 15.25484375 -17.83099609 15.25484375 -19.31640625 16.34375 C-22.86934932 19.3387609 -24.72279563 22.87854365 -26.75 27 C-27.10449219 27.69287109 -27.45898438 28.38574219 -27.82421875 29.09960938 C-28.68661269 30.78943534 -29.53255422 32.48764112 -30.375 34.1875 C-32.75 34.3125 -32.75 34.3125 -35.375 34.1875 C-36.035 33.5275 -36.695 32.8675 -37.375 32.1875 C-37.23094974 23.97663493 -33.81959388 17.61656335 -28.375 11.5625 C-20.05495523 3.77042306 -11.04278142 0.61348786 0 0 Z " fill="#010301" transform="translate(178.375,156.8125)"/>
<path d="M0 0 C10.12320413 8.44916414 18.76332824 21.67344805 20.06640625 34.96484375 C20.40652515 42.43683078 20.40652515 42.43683078 20.06640625 45.96484375 C19.07640625 46.95484375 19.07640625 46.95484375 18.06640625 47.96484375 C14.76925832 47.63512896 13.44372235 47.34215985 11.06640625 44.96484375 C10.7757702 42.72195542 10.55898241 40.46930376 10.37890625 38.21484375 C9.24440376 27.43313999 4.44953953 16.55831106 -3.828125 9.3046875 C-5.84505293 7.82998867 -7.87788637 6.38500801 -9.93359375 4.96484375 C-10.94421875 4.24296875 -11.95484375 3.52109375 -12.99609375 2.77734375 C-24.96067584 -3.69440747 -39.10276707 -2.27331549 -51.93359375 -0.03515625 C-53.93359375 -3.03515625 -53.93359375 -3.03515625 -53.74609375 -5.59765625 C-52.93359375 -8.03515625 -52.93359375 -8.03515625 -49.93359375 -10.03515625 C-32.34362762 -16.08520829 -14.61820093 -10.14125524 0 0 Z " fill="#010603" transform="translate(314.93359375,153.03515625)"/>
<path d="M0 0 C0.495 2.97 0.495 2.97 1 6 C0.3709375 6.35191406 -0.258125 6.70382813 -0.90625 7.06640625 C-12.57173233 13.79514079 -21.68659523 21.63386416 -25.56665039 35.00830078 C-27.09696037 40.76792097 -27.45615673 46.16537992 -27.4765625 52.1015625 C-27.49993179 53.60618546 -27.49993179 53.60618546 -27.52377319 55.14120483 C-27.57080242 58.30246352 -27.59892383 61.4635053 -27.625 64.625 C-27.6614993 67.82205083 -27.70200157 71.01897861 -27.74765015 74.21591187 C-27.77488236 76.19567591 -27.79623121 78.17553119 -27.81118774 80.15542603 C-27.82144989 81.04080048 -27.83171204 81.92617493 -27.84228516 82.83837891 C-27.84878082 83.6201651 -27.85527649 84.40195129 -27.86196899 85.20742798 C-28 87 -28 87 -29 88 C-31.33297433 88.04092937 -33.66705225 88.04241723 -36 88 C-37.17510877 85.64978247 -37.13886213 84.22162145 -37.16113281 81.60131836 C-37.17074036 80.6895433 -37.1803479 79.77776825 -37.19024658 78.83836365 C-37.19449646 77.84885208 -37.19874634 76.85934052 -37.203125 75.83984375 C-37.21167511 74.31128502 -37.21167511 74.31128502 -37.22039795 72.75184631 C-37.22985956 70.58888795 -37.23638652 68.42591509 -37.24023438 66.26293945 C-37.2498894 62.97516092 -37.28088104 59.68802099 -37.3125 56.40039062 C-37.31903517 54.2968787 -37.32428362 52.19336232 -37.328125 50.08984375 C-37.3404718 49.1145018 -37.3528186 48.13915985 -37.36553955 47.13426208 C-37.34544072 40.88018633 -36.35245422 35.79033115 -34 30 C-33.5978125 28.98292969 -33.195625 27.96585938 -32.78125 26.91796875 C-27.49098566 15.64389932 -19.14393406 5.87378191 -8 0 C-4.71023192 -1.09658936 -3.28696233 -0.79953138 0 0 Z " fill="#010402" transform="translate(161,147)"/>
<path d="M0 0 C0 2.31 0 4.62 0 7 C-3.78525902 8.25219427 -7.29769941 7.95815251 -11.25 7.8125 C-28.46651137 7.57305197 -42.80329153 13.47497186 -55.2578125 25.49609375 C-57 27 -57 27 -59 27 C-59.99 29.475 -59.99 29.475 -61 32 C-64.6777936 31.44833096 -65.98564312 30.19790622 -68.25 27.3125 C-71.28274357 23.64301156 -74.42894782 21.02733155 -78.3984375 18.421875 C-80.37685762 16.66542396 -80.80662289 15.62585756 -81 13 C-80.34 12.01 -79.68 11.02 -79 10 C-76.1640625 9.55859375 -76.1640625 9.55859375 -73 10 C-70.5859375 11.78515625 -70.5859375 11.78515625 -68.375 14.0625 C-66.25470503 16.34701533 -66.25470503 16.34701533 -64 18 C-60.56114913 17.90230537 -58.96606248 16.23724856 -56.625 13.875 C-44.86755303 3.34723097 -15.22236092 -9.31294317 0 0 Z " fill="#010402" transform="translate(292,126)"/>
<path d="M0 0 C3.24571067 2.45407392 4.44697966 5.12279826 5.5625 8.9375 C5.88728973 11.7678105 5.85146938 14.53125553 5.75 17.375 C5.72969727 18.47231445 5.72969727 18.47231445 5.70898438 19.59179688 C5.67403874 21.37402422 5.62024805 23.15586573 5.5625 24.9375 C6.8825 24.9375 8.2025 24.9375 9.5625 24.9375 C9.5625 26.9175 9.5625 28.8975 9.5625 30.9375 C0.99107143 31.22321429 0.99107143 31.22321429 -2.4375 28.9375 C-3.6440625 29.9584375 -3.6440625 29.9584375 -4.875 31 C-8.4244612 33.36350379 -11.19636592 33.23252952 -15.31640625 32.55859375 C-18.35220076 31.66965945 -20.25412269 30.18910785 -22.4375 27.9375 C-24.05480505 24.7028899 -24.16492643 21.42113849 -23.4375 17.9375 C-21.27144504 15.20493836 -18.55182576 13.49466288 -15.4375 11.9375 C-13.2302077 11.86657158 -11.02082548 11.85334975 -8.8125 11.875 C-7.62398438 11.88402344 -6.43546875 11.89304687 -5.2109375 11.90234375 C-4.29570312 11.91394531 -3.38046875 11.92554688 -2.4375 11.9375 C-3.0975 9.9575 -3.7575 7.9775 -4.4375 5.9375 C-8.45880715 5.66114839 -8.45880715 5.66114839 -12.4375 5.9375 C-14.49020463 7.77938612 -14.49020463 7.77938612 -15.4375 9.9375 C-20.1875 9.0625 -20.1875 9.0625 -22.4375 7.9375 C-21.16840537 4.02445821 -19.97493024 2.08139712 -16.4375 -0.0625 C-10.98753957 -1.87915348 -5.46363173 -1.6887589 0 0 Z " fill="#020704" transform="translate(350.4375,376.0625)"/>
<path d="M0 0 C3.44693081 1.93296282 4.63974496 3.81871474 6.41015625 7.3515625 C6.99154063 10.47896111 7.10444225 13.55086471 7.16015625 16.7265625 C7.18980469 17.55800781 7.21945312 18.38945312 7.25 19.24609375 C7.32016024 21.28074077 7.3674852 23.31615341 7.41015625 25.3515625 C8.40015625 25.6815625 9.39015625 26.0115625 10.41015625 26.3515625 C10.41015625 28.3315625 10.41015625 30.3115625 10.41015625 32.3515625 C3.9272333 32.7185204 3.9272333 32.7185204 1.47265625 30.9765625 C0.41015625 29.3515625 0.41015625 29.3515625 0.41015625 27.3515625 C-0.24984375 27.3515625 -0.90984375 27.3515625 -1.58984375 27.3515625 C-1.87859375 27.9909375 -2.16734375 28.6303125 -2.46484375 29.2890625 C-3.58984375 31.3515625 -3.58984375 31.3515625 -5.58984375 32.3515625 C-10.79444462 32.86280349 -15.15430306 33.21288691 -19.71484375 30.4765625 C-22.10987909 27.76218912 -22.54416007 26.74748771 -22.96484375 23.1015625 C-22.46840136 18.13713864 -21.11476962 16.79451335 -17.58984375 13.3515625 C-14.16751403 12.21078593 -11.50311158 12.25341133 -7.90234375 12.2890625 C-6.13310547 12.30259766 -6.13310547 12.30259766 -4.328125 12.31640625 C-3.42449219 12.32800781 -2.52085937 12.33960938 -1.58984375 12.3515625 C-2.24984375 10.3715625 -2.90984375 8.3915625 -3.58984375 6.3515625 C-9.30321748 5.75919666 -9.30321748 5.75919666 -14.08984375 8.3515625 C-14.58484375 9.0115625 -15.07984375 9.6715625 -15.58984375 10.3515625 C-18.06484375 9.3615625 -18.06484375 9.3615625 -20.58984375 8.3515625 C-20.39255053 4.80028455 -19.79803357 3.55427364 -17.21484375 1.0390625 C-11.59495605 -1.57709212 -5.98422868 -1.49831367 0 0 Z " fill="#030804" transform="translate(252.58984375,375.6484375)"/>
<path d="M0 0 C3.44693081 1.93296282 4.63974496 3.81871474 6.41015625 7.3515625 C6.99154063 10.47896111 7.10444225 13.55086471 7.16015625 16.7265625 C7.18980469 17.55800781 7.21945313 18.38945312 7.25 19.24609375 C7.32016024 21.28074077 7.3674852 23.31615341 7.41015625 25.3515625 C8.40015625 25.6815625 9.39015625 26.0115625 10.41015625 26.3515625 C10.41015625 28.3315625 10.41015625 30.3115625 10.41015625 32.3515625 C3.9272333 32.7185204 3.9272333 32.7185204 1.47265625 30.9765625 C0.41015625 29.3515625 0.41015625 29.3515625 0.41015625 27.3515625 C-0.24984375 27.3515625 -0.90984375 27.3515625 -1.58984375 27.3515625 C-1.87859375 27.9909375 -2.16734375 28.6303125 -2.46484375 29.2890625 C-3.58984375 31.3515625 -3.58984375 31.3515625 -5.58984375 32.3515625 C-10.79444462 32.86280349 -15.15430306 33.21288691 -19.71484375 30.4765625 C-22.10987909 27.76218912 -22.54416007 26.74748771 -22.96484375 23.1015625 C-22.46840136 18.13713864 -21.11476962 16.79451335 -17.58984375 13.3515625 C-14.16751403 12.21078593 -11.50311158 12.25341133 -7.90234375 12.2890625 C-6.13310547 12.30259766 -6.13310547 12.30259766 -4.328125 12.31640625 C-3.42449219 12.32800781 -2.52085937 12.33960938 -1.58984375 12.3515625 C-2.24984375 10.3715625 -2.90984375 8.3915625 -3.58984375 6.3515625 C-9.30321748 5.75919666 -9.30321748 5.75919666 -14.08984375 8.3515625 C-14.58484375 9.0115625 -15.07984375 9.6715625 -15.58984375 10.3515625 C-18.06484375 9.3615625 -18.06484375 9.3615625 -20.58984375 8.3515625 C-20.39255053 4.80028455 -19.79803357 3.55427364 -17.21484375 1.0390625 C-11.59495605 -1.57709212 -5.98422868 -1.49831367 0 0 Z " fill="#030804" transform="translate(149.58984375,375.6484375)"/>
<path d="M0 0 C0.88042969 -0.00257812 1.76085937 -0.00515625 2.66796875 -0.0078125 C4.8125 0.125 4.8125 0.125 5.8125 1.125 C5.85313832 2.79117115 5.855221 4.45888095 5.8125 6.125 C1.7510396 8.27769598 -2.14267286 9.81574489 -6.5625 11.0625 C-11.11689299 12.41692788 -15.20318008 13.9407919 -19.37109375 16.203125 C-21.23781234 17.15053486 -23.07416201 17.78921485 -25.0625 18.4375 C-29.56088559 20.02882613 -33.10634314 22.74527333 -36.890625 25.6015625 C-39.09258427 27.06204569 -40.57068088 27.85160099 -43.1875 28.125 C-44.88879335 26.8361414 -46.54496695 25.48795295 -48.1875 24.125 C-52.93131599 21.21513349 -57.80593778 18.63487796 -62.98046875 16.58203125 C-63.61670166 16.32728027 -64.25293457 16.0725293 -64.90844727 15.81005859 C-66.73622709 15.09244584 -68.57498987 14.40299999 -70.4140625 13.71484375 C-73.1875 12.125 -73.1875 12.125 -74.1484375 9.56640625 C-74.1875 7.125 -74.1875 7.125 -73.1875 5.125 C-61.95305299 4.74417129 -52.33280478 10.02813015 -43.1875 16.125 C-39.53389524 15.78099176 -36.83476623 14.57851735 -33.6875 12.75 C-32.90503906 12.30140625 -32.12257812 11.8528125 -31.31640625 11.390625 C-29.73752902 10.45198973 -28.17620606 9.48369165 -26.625 8.5 C-23.90572481 6.96604989 -21.17512537 5.93424306 -18.2421875 4.8828125 C-16.27065525 4.15566943 -14.35900098 3.34941889 -12.4375 2.5 C-8.10054407 0.66513403 -4.70972254 -0.01391351 0 0 Z " fill="#010402" transform="translate(271.1875,105.875)"/>
<path d="M0 0 C3.125 0.375 3.125 0.375 6 1 C6.17933682 7.57916912 6.30083539 14.15769541 6.38452148 20.73876953 C6.41945209 22.97143096 6.4670152 25.20393553 6.52807617 27.43603516 C6.96835153 43.9593103 6.09333578 55.20744144 -5.1875 68 C-10.06097161 72.47923209 -15.73667208 75.83698886 -22 78 C-22.99 77.67 -23.98 77.34 -25 77 C-24.28714844 76.55011719 -23.57429687 76.10023438 -22.83984375 75.63671875 C-12.2034797 68.49331948 -6.28514517 59.6577835 -3.3711853 47.14163208 C-1.99086898 39.17760524 -2.39102662 30.86787912 -2.375 22.8125 C-2.3586457 19.85309407 -2.33670139 16.8940029 -2.30337524 13.93473816 C-2.28375687 12.10629966 -2.27440912 10.27771557 -2.27645874 8.44917297 C-2.22354637 2.22354637 -2.22354637 2.22354637 0 0 Z " fill="#010301" transform="translate(210,224)"/>
<path d="M0 0 C-0.875 4.875 -0.875 4.875 -2 6 C-7.0477086 5.55959589 -11.82887797 4.62257342 -16.74755859 3.4375 C-30.45224315 0.19498683 -42.81492003 0.43565432 -56 6 C-58.46338196 7.52547209 -60.7457314 9.10739662 -63 10.92578125 C-65 12 -65 12 -67.6875 11.73046875 C-70 11 -70 11 -71 10 C-71.375 7.625 -71.375 7.625 -71 5 C-69.125 3.5 -69.125 3.5 -66 2 C-65.34128906 1.61972656 -64.68257812 1.23945313 -64.00390625 0.84765625 C-44.43704482 -10.00815726 -19.77431039 -10.44059656 0 0 Z " fill="#010302" transform="translate(210,132)"/>
<path d="M0 0 C0.78375 0.2475 1.5675 0.495 2.375 0.75 C3.78267735 3.56535471 3.50262545 5.93961337 3.515625 9.0859375 C3.53496094 10.37886719 3.55429688 11.67179688 3.57421875 13.00390625 C3.60288066 15.04861753 3.62499206 17.09228355 3.62548828 19.13720703 C3.64824316 32.39680102 6.59030686 43.63434622 15.9375 53.4375 C16.741875 54.200625 17.54625 54.96375 18.375 55.75 C18.87 56.306875 19.365 56.86375 19.875 57.4375 C21.84592441 59.16205886 23.92265165 59.88836409 26.375 60.75 C22.03850871 62.24433146 19.71840271 60.95808 15.7421875 59.03515625 C5.28874043 53.35993498 -0.89657372 45.14326796 -4.81787109 33.95825195 C-6.33685425 27.92045471 -6.15897296 21.87732966 -6.0625 15.6875 C-6.06958984 14.37072266 -6.07667969 13.05394531 -6.08398438 11.69726562 C-6.03590071 4.51060726 -6.03590071 4.51060726 -5.625 1.75 C-2.625 -0.25 -2.625 -0.25 0 0 Z " fill="#030905" transform="translate(247.625,241.25)"/>
<path d="M0 0 C3 0.125 3 0.125 4 1.125 C4.10358779 2.64886231 4.13851138 4.17746986 4.14526367 5.70483398 C4.15164352 6.67931992 4.15802338 7.65380585 4.16459656 8.65782166 C4.16570938 9.71820145 4.1668222 10.77858124 4.16796875 11.87109375 C4.17129715 12.95254166 4.17462555 14.03398956 4.17805481 15.14820862 C4.18312877 17.44067966 4.18546299 19.73315812 4.18530273 22.02563477 C4.18748845 25.54390567 4.20563728 29.06186281 4.22460938 32.58007812 C4.22754328 34.80208225 4.22952809 37.02408788 4.23046875 39.24609375 C4.23765427 40.30444931 4.24483978 41.36280487 4.25224304 42.45323181 C4.24916641 43.4308699 4.24608978 44.408508 4.24291992 45.41577148 C4.24434494 46.27879379 4.24576996 47.1418161 4.24723816 48.0309906 C4 50.125 4 50.125 2 52.125 C-2.55555556 51.56944444 -2.55555556 51.56944444 -4 50.125 C-4.09839214 48.5956537 -4.12798539 47.06180434 -4.12939453 45.52929688 C-4.13254669 44.55158325 -4.13569885 43.57386963 -4.13894653 42.56652832 C-4.1369223 41.50301147 -4.13489807 40.43949463 -4.1328125 39.34375 C-4.13376923 38.25993042 -4.13472595 37.17611084 -4.13571167 36.05944824 C-4.13639365 33.7627761 -4.13453811 31.46610205 -4.13037109 29.16943359 C-4.12502312 25.64025572 -4.1303155 22.11120513 -4.13671875 18.58203125 C-4.13605797 16.35677055 -4.13477682 14.13150993 -4.1328125 11.90625 C-4.13483673 10.84273315 -4.13686096 9.77921631 -4.13894653 8.68347168 C-4.13579437 7.70575806 -4.13264221 6.72804443 -4.12939453 5.72070312 C-4.12859894 4.85546021 -4.12780334 3.99021729 -4.12698364 3.09875488 C-3.9175944 -0.15586155 -3.32223312 0.13842638 0 0 Z " fill="#000000" transform="translate(144,194.875)"/>
<path d="M0 0 C-2.67724855 2.67724855 -5.73008299 3.42410074 -9.25 4.5625 C-10.23419922 4.89411133 -10.23419922 4.89411133 -11.23828125 5.23242188 C-19.08793576 7.81516108 -23.81504817 8.18427705 -31.5625 5.6875 C-32.30435547 5.46126953 -33.04621094 5.23503906 -33.81054688 5.00195312 C-37.61333096 3.82691655 -41.32944061 2.54817653 -45 1 C-33.03204529 -10.56902289 -13.30619765 -7.35342502 0 0 Z " fill="#010301" transform="translate(251,93)"/>
<path d="M0 0 C2.1875 1.625 2.1875 1.625 3.1875 3.625 C3.81036015 8.65237124 3.96394356 12.41180694 1.1875 16.75 C-2.12935862 18.82303664 -4.0320253 19.37453226 -7.87890625 19.10546875 C-11.35815017 18.24092935 -12.79858141 16.49330829 -14.8125 13.625 C-16.01370695 9.4958511 -16.07909572 7.36866175 -14.625 3.3125 C-10.9757518 -2.09845423 -5.85258599 -2.86126426 0 0 Z " fill="#24A64B" transform="translate(211.8125,382.375)"/>
<path d="M0 0 C2.69990662 1.79993774 4.5418865 3.083773 6 6 C6.16796875 8.0234375 6.16796875 8.0234375 6.1875 10.375 C6.20167969 11.14585937 6.21585937 11.91671875 6.23046875 12.7109375 C5.97346333 15.2635676 5.35894565 16.83418037 4 19 C-0.13086537 21.47851922 -3.4071226 21.10569271 -8 20 C-10.05938216 18.42114034 -10.84571211 17.30857577 -12 15 C-12.55512815 10.36786507 -12.6364242 7.01827873 -10.125 3 C-6.7534654 -0.17320904 -4.59345737 -0.45033896 0 0 Z " fill="#25AA4D" transform="translate(287,381)"/>
<path d="M0 0 C2.31 0 4.62 0 7 0 C7 0.99 7 1.98 7 3 C7.66 3 8.32 3 9 3 C9.33 2.01 9.66 1.02 10 0 C12.64 0 15.28 0 18 0 C18 1.98 18 3.96 18 6 C17.36191406 6.10957031 16.72382813 6.21914063 16.06640625 6.33203125 C15.24011719 6.49058594 14.41382813 6.64914062 13.5625 6.8125 C12.73878906 6.96332031 11.91507813 7.11414063 11.06640625 7.26953125 C10.38449219 7.51058594 9.70257813 7.75164062 9 8 C8.0699111 10.7902667 7.81301231 12.76529542 7.68359375 15.66796875 C7.64169922 16.56064453 7.59980469 17.45332031 7.55664062 18.37304688 C7.49766602 19.76620117 7.49766602 19.76620117 7.4375 21.1875 C7.39431641 22.12787109 7.35113281 23.06824219 7.30664062 24.03710938 C7.20061335 26.35792854 7.09854971 28.67885325 7 31 C4.69 31 2.38 31 0 31 C0 20.77 0 10.54 0 0 Z " fill="#000100" transform="translate(167,376)"/>
<path d="M0 0 C3 0.125 3 0.125 4 1.125 C4.1007812 3.48898468 4.13973215 5.82311311 4.1328125 8.1875 C4.13376923 8.89398682 4.13472595 9.60047363 4.13571167 10.32836914 C4.13639333 11.82470793 4.13454005 13.32104967 4.13037109 14.81738281 C4.12502257 17.11530157 4.13031651 19.41302486 4.13671875 21.7109375 C4.13605797 23.16145877 4.1347768 24.61197991 4.1328125 26.0625 C4.13483673 26.7541626 4.13686096 27.4458252 4.13894653 28.15844727 C4.11495224 33.01004776 4.11495224 33.01004776 3 34.125 C0 34.25 0 34.25 -3 34.125 C-4.67673649 32.44826351 -4.12787817 30.39644924 -4.13894653 28.15844727 C-4.1369223 27.46678467 -4.13489807 26.77512207 -4.1328125 26.0625 C-4.13376923 25.35601318 -4.13472595 24.64952637 -4.13571167 23.92163086 C-4.13639333 22.42529207 -4.13454005 20.92895033 -4.13037109 19.43261719 C-4.12502257 17.13469843 -4.13031651 14.83697514 -4.13671875 12.5390625 C-4.13605797 11.08854123 -4.1347768 9.63802009 -4.1328125 8.1875 C-4.13483673 7.4958374 -4.13686096 6.8041748 -4.13894653 6.09155273 C-4.10966675 0.17123611 -4.10966675 0.17123611 0 0 Z " fill="#000000" transform="translate(331,204.875)"/>
<path d="M0 0 C10.33017989 0.16371125 21.88483575 2.99054951 30.25 9.25 C31.078125 11.9453125 31.078125 11.9453125 31.25 14.25 C29.50390625 15.3515625 29.50390625 15.3515625 27.25 16.25 C25.27734375 15.7109375 25.27734375 15.7109375 23.1875 14.625 C14.06175272 10.21123988 5.31185362 7.5845565 -4.75 6.25 C-4.792721 4.58388095 -4.79063832 2.91617115 -4.75 1.25 C-3.75 0.25 -3.75 0.25 0 0 Z " fill="#020703" transform="translate(196.75,97.75)"/>
<path d="M0 0 C-0.28515625 1.90625 -0.28515625 1.90625 -1 4 C-3.67440594 5.1670135 -6.23798271 6.09755871 -9 7 C-16.1339492 9.70760448 -23.07972695 12.78983532 -30 16 C-31.5625 14.75 -31.5625 14.75 -33 13 C-32.80151367 11.02001953 -32.80151367 11.02001953 -32 9 C-29.43853667 7.4341689 -27.01729283 6.13516034 -24.3125 4.875 C-23.24999023 4.35486328 -23.24999023 4.35486328 -22.16601562 3.82421875 C-5.97189007 -3.98126005 -5.97189007 -3.98126005 0 0 Z " fill="#010502" transform="translate(264,98)"/>
<path d="M0 0 C2.31 0 4.62 0 7 0 C7 10.23 7 20.46 7 31 C4.69 31 2.38 31 0 31 C0 20.77 0 10.54 0 0 Z " fill="#000000" transform="translate(366,376)"/>
<path d="M0 0 C3.625 0.375 3.625 0.375 7 1 C7.02894547 4.45831586 7.04678 7.91660072 7.0625 11.375 C7.07087891 12.35984375 7.07925781 13.3446875 7.08789062 14.359375 C7.09111328 15.30039063 7.09433594 16.24140625 7.09765625 17.2109375 C7.10289307 18.08024902 7.10812988 18.94956055 7.11352539 19.84521484 C7 22 7 22 6 24 C4.1875 24.75 4.1875 24.75 2 25 C0.64605972 24.37624689 -0.69110087 23.71344607 -2 23 C-2.05789006 19.54173658 -2.09355821 16.08359707 -2.125 12.625 C-2.14175781 11.64015625 -2.15851563 10.6553125 -2.17578125 9.640625 C-2.18222656 8.69960937 -2.18867188 7.75859375 -2.1953125 6.7890625 C-2.20578613 5.91975098 -2.21625977 5.05043945 -2.22705078 4.15478516 C-2 2 -2 2 0 0 Z " fill="#050B07" transform="translate(244,213)"/>
<path d="M0 0 C2.97 0.495 2.97 0.495 6 1 C6 8.92 6 16.84 6 25 C3.69 25.33 1.38 25.66 -1 26 C-3.47598733 23.52401267 -2.1855126 16.89139842 -2.1875 13.5625 C-2.19974609 12.48677734 -2.21199219 11.41105469 -2.22460938 10.30273438 C-2.22654297 9.27599609 -2.22847656 8.24925781 -2.23046875 7.19140625 C-2.23457764 6.24467041 -2.23868652 5.29793457 -2.24291992 4.32250977 C-2 2 -2 2 0 0 Z " fill="#000100" transform="translate(312,230)"/>
<path d="M0 0 C1.53333984 0.01353516 1.53333984 0.01353516 3.09765625 0.02734375 C5.60701522 0.0507957 8.11588336 0.08361645 10.625 0.125 C11.75 4.875 11.75 4.875 10.625 7.125 C6.14615561 7.32081346 1.66691574 7.5052636 -2.8125 7.6875 C-4.09189453 7.74357422 -5.37128906 7.79964844 -6.68945312 7.85742188 C-8.51186523 7.92993164 -8.51186523 7.92993164 -10.37109375 8.00390625 C-12.05996704 8.07460327 -12.05996704 8.07460327 -13.78295898 8.14672852 C-16.375 8.125 -16.375 8.125 -17.375 7.125 C-17.41563832 5.45882885 -17.417721 3.79111905 -17.375 2.125 C-11.62047579 -0.36928183 -6.14438083 -0.10306703 0 0 Z " fill="#000100" transform="translate(182.375,108.875)"/>
<path d="M0 0 C3.29714793 0.32971479 4.6226839 0.6226839 7 3 C7.44360072 5.95852109 7.32412652 8.94948451 7.3125 11.9375 C7.32861328 12.76185547 7.34472656 13.58621094 7.36132812 14.43554688 C7.36197266 15.22896484 7.36261719 16.02238281 7.36328125 16.83984375 C7.36775269 17.92833618 7.36775269 17.92833618 7.37231445 19.03881836 C6.89026092 21.57805511 6.07391462 22.49024331 4 24 C0.8125 23.6875 0.8125 23.6875 -2 23 C-2.05789006 19.54173658 -2.09355821 16.08359707 -2.125 12.625 C-2.14175781 11.64015625 -2.15851563 10.6553125 -2.17578125 9.640625 C-2.18222656 8.69960938 -2.18867188 7.75859375 -2.1953125 6.7890625 C-2.20578613 5.91975098 -2.21625977 5.05043945 -2.22705078 4.15478516 C-2 2 -2 2 0 0 Z " fill="#020B05" transform="translate(142,250)"/>
<path d="M0 0 C11.72145315 -0.27908222 11.72145315 -0.27908222 15 2 C15.99184231 5.58589143 16.18429132 7.44712603 15 11 C10.36897625 13.8383694 5.23715454 13.13965745 0 13 C0 8.71 0 4.42 0 0 Z " fill="#22A148" transform="translate(98,388)"/>
<path d="M0 0 C11.25 -0.26785714 11.25 -0.26785714 15 2 C15.25 8.625 15.25 8.625 13 12 C9.98509443 13.00496852 7.95818308 13.10335303 4.8125 13.0625 C3.224375 13.041875 1.63625 13.02125 0 13 C0 8.71 0 4.42 0 0 Z " fill="#22A048" transform="translate(98,369)"/>
<path d="M0 0 C7.70839137 0.12432889 13.71792439 2.49036715 20 7 C20.33 7.99 20.66 8.98 21 10 C19.3125 12.0625 19.3125 12.0625 17 14 C12.9169808 14 9.4870086 11.83698364 5.9375 9.98828125 C3.67955749 8.83654848 1.37240176 7.88965066 -1 7 C-1.04254356 5.00045254 -1.04080783 2.99958364 -1 1 C-0.67 0.67 -0.34 0.34 0 0 Z " fill="#010502" transform="translate(298,128)"/>
<path d="M0 0 C1.12664062 -0.00773438 2.25328125 -0.01546875 3.4140625 -0.0234375 C6.375 0.375 6.375 0.375 8.2890625 1.734375 C9.375 3.375 9.375 3.375 9.125 6 C8.375 8.375 8.375 8.375 7.375 9.375 C4.55547346 9.66606687 1.76450458 9.8902617 -1.0625 10.0625 C-1.85205078 10.12244141 -2.64160156 10.18238281 -3.45507812 10.24414062 C-5.5082092 10.37191434 -7.56790624 10.38121478 -9.625 10.375 C-11.625 8.375 -11.625 8.375 -12.0625 5.9375 C-11.625 3.375 -11.625 3.375 -9.51171875 1.73828125 C-6.11899172 0.13603263 -3.73840183 -0.02578208 0 0 Z " fill="#000100" transform="translate(176.625,140.625)"/>
<path d="M0 0 C2.5 0.25 2.5 0.25 4.5 2.25 C4.51171875 5.03515625 4.51171875 5.03515625 4.1875 8.3125 C4.08824219 9.39660156 3.98898437 10.48070312 3.88671875 11.59765625 C3.5 14.25 3.5 14.25 2.5 15.25 C-0.5 15.375 -0.5 15.375 -3.5 15.25 C-5.30746134 13.44253866 -4.67303483 10.74554219 -4.6875 8.3125 C-4.70167969 7.23097656 -4.71585937 6.14945312 -4.73046875 5.03515625 C-4.42800042 1.37990336 -3.69383829 0.36938383 0 0 Z " fill="#010201" transform="translate(314.5,259.75)"/>
<path d="M0 0 C1.65322266 0.01740234 1.65322266 0.01740234 3.33984375 0.03515625 C4.99693359 0.04869141 4.99693359 0.04869141 6.6875 0.0625 C7.54214844 0.07410156 8.39679688 0.08570313 9.27734375 0.09765625 C9.03209462 3.77639318 8.90810375 5.5389831 6.08984375 8.03515625 C2.65643748 9.33222084 0.77541286 9.10820955 -2.72265625 8.09765625 C-3.38265625 7.43765625 -4.04265625 6.77765625 -4.72265625 6.09765625 C-3.996521 0.14334724 -3.996521 0.14334724 0 0 Z " fill="#23A249" transform="translate(338.72265625,393.90234375)"/>
<path d="M0 0 C1 1 1 1 1.1875 4.4375 C1 8 1 8 -1 10 C-4.13704316 10.333728 -6.16554166 10.52849028 -8.875 8.8125 C-10.40659584 6.34492892 -10.42822025 4.85480169 -10 2 C-7.59027568 -2.25245468 -4.23782457 -0.94173879 0 0 Z " fill="#010402" transform="translate(319,398)"/>
<path d="M0 0 C1.65322266 0.01740234 1.65322266 0.01740234 3.33984375 0.03515625 C4.99693359 0.04869141 4.99693359 0.04869141 6.6875 0.0625 C7.54214844 0.07410156 8.39679688 0.08570313 9.27734375 0.09765625 C9.46484375 4.87109375 9.46484375 4.87109375 7.77734375 6.91015625 C4.11629006 8.64915675 1.31335978 8.36231304 -2.72265625 8.09765625 C-3.72265625 7.09765625 -3.72265625 7.09765625 -3.84765625 4.09765625 C-3.68242396 0.1320812 -3.68242396 0.1320812 0 0 Z " fill="#24A84C" transform="translate(241.72265625,393.90234375)"/>
<path d="M0 0 C1.65322266 0.01740234 1.65322266 0.01740234 3.33984375 0.03515625 C4.99693359 0.04869141 4.99693359 0.04869141 6.6875 0.0625 C7.54214844 0.07410156 8.39679688 0.08570313 9.27734375 0.09765625 C9.46484375 4.87109375 9.46484375 4.87109375 7.77734375 6.91015625 C4.11629006 8.64915675 1.31335978 8.36231304 -2.72265625 8.09765625 C-3.72265625 7.09765625 -3.72265625 7.09765625 -3.84765625 4.09765625 C-3.68242396 0.1320812 -3.68242396 0.1320812 0 0 Z " fill="#24A74C" transform="translate(138.72265625,393.90234375)"/>
<path d="M0 0 C3.625 0.375 3.625 0.375 7 1 C7.6875 3.3125 7.6875 3.3125 8 6 C6.875 7.8125 6.875 7.8125 5 9 C2.4375 9.3125 2.4375 9.3125 0 9 C-2 7 -2 7 -2.25 4.5 C-2 2 -2 2 0 0 Z " fill="#020603" transform="translate(367,362)"/>
<path d="M0 0 C2.72869407 0.03287583 5.2966618 0.56397771 8 1 C8 2.98 8 4.96 8 7 C6.3125 8.125 6.3125 8.125 4 9 C1.3125 8.4375 1.3125 8.4375 -1 7 C-1.9375 4.5 -1.9375 4.5 -2 2 C-1.34 1.34 -0.68 0.68 0 0 Z " fill="#010603" transform="translate(283,105)"/>
</svg>
